<svg width="19" height="15" viewBox="0 0 19 15" fill="none" xmlns="http://www.w3.org/2000/svg">
<path fill-rule="evenodd" clip-rule="evenodd" d="M8.62504 0.0450169C8.11522 0.130351 7.63211 0.332711 7.21367 0.636207C6.79522 0.939702 6.45283 1.33607 6.21338 1.79418C6.03959 2.11408 5.92497 2.46273 5.87504 2.82335C5.81504 3.15678 5.81504 3.49825 5.87504 3.83168C5.95446 4.34785 6.15446 4.83801 6.45881 5.26239C6.76316 5.68678 7.16328 6.03342 7.62671 6.27418C7.78254 6.35418 8.00588 6.45168 8.12254 6.49168C8.36838 6.57502 8.89338 6.66085 9.16004 6.66085C9.42671 6.66085 9.95171 6.57502 10.1975 6.49168C11.0175 6.21252 11.7234 5.61002 12.1067 4.86085C12.2805 4.54095 12.3951 4.1923 12.445 3.83168C12.505 3.49825 12.505 3.15678 12.445 2.82335C12.3656 2.30719 12.1656 1.81702 11.8613 1.39264C11.5569 0.968255 11.1568 0.621614 10.6934 0.38085C10.3735 0.207061 10.0248 0.0924455 9.66421 0.0425169C9.32014 -0.0149996 8.96884 -0.0141544 8.62504 0.0450169ZM9.57004 1.71085C9.87004 1.78835 10.0917 1.91918 10.33 2.15752C10.5767 2.40335 10.7034 2.62502 10.7767 2.93502C10.8708 3.33043 10.8209 3.74645 10.6359 4.10835C10.525 4.32752 10.1567 4.69418 9.93504 4.80668C9.69504 4.92908 9.42946 4.9929 9.16004 4.9929C8.89063 4.9929 8.62505 4.92908 8.38504 4.80668C8.16088 4.69335 7.79421 4.32668 7.68088 4.10252C7.55848 3.86251 7.49466 3.59693 7.49466 3.32752C7.49466 3.0581 7.55848 2.79252 7.68088 2.55252C7.79504 2.32752 8.16088 1.96168 8.38588 1.84835C8.75189 1.66381 9.17149 1.61509 9.57004 1.71085ZM3.29338 3.37918C2.52088 3.54502 1.87254 4.19918 1.71004 4.97752C1.63895 5.31642 1.65346 5.6677 1.75225 5.99959C1.85104 6.33148 2.031 6.63351 2.27586 6.87837C2.52072 7.12322 2.82275 7.30319 3.15464 7.40198C3.48653 7.50077 3.83781 7.51528 4.17671 7.44418C5.28921 7.21168 6.01171 6.09835 5.77671 4.97752C5.54338 3.86002 4.42004 3.13752 3.29338 3.37918ZM14.1267 3.37918C13.3542 3.54502 12.7059 4.19918 12.5434 4.97752C12.4723 5.31642 12.4868 5.6677 12.5856 5.99959C12.6844 6.33148 12.8643 6.63351 13.1092 6.87837C13.3541 7.12322 13.6561 7.30319 13.988 7.40198C14.3199 7.50077 14.6711 7.51528 15.01 7.44418C15.311 7.37887 15.5938 7.2477 15.838 7.0601C16.0822 6.8725 16.2818 6.63313 16.4225 6.35918C16.735 5.72418 16.735 5.09752 16.4225 4.46252C16.0142 3.63418 15.0525 3.18085 14.1267 3.37918ZM3.93004 5.04585C3.97983 5.07109 4.02388 5.1063 4.05947 5.1493C4.09505 5.19231 4.1214 5.24217 4.13688 5.2958C4.15236 5.34942 4.15663 5.40566 4.14943 5.46101C4.14224 5.51636 4.12372 5.56963 4.09504 5.61752C4.0598 5.67974 4.00868 5.73149 3.9469 5.7675C3.88511 5.80351 3.81489 5.82248 3.74338 5.82248C3.67187 5.82248 3.60164 5.80351 3.53986 5.7675C3.47808 5.73149 3.42695 5.67974 3.39171 5.61752C3.36326 5.57169 3.34441 5.52056 3.33631 5.46724C3.32821 5.41391 3.33102 5.35949 3.34458 5.30728C3.35814 5.25507 3.38216 5.20616 3.41519 5.16352C3.44821 5.12087 3.48956 5.08537 3.53671 5.05918C3.59471 5.021 3.66211 4.99956 3.7315 4.9972C3.8009 4.99485 3.8696 5.01168 3.93004 5.04585ZM14.7634 5.04585C14.8283 5.08369 14.883 5.13663 14.9231 5.20018C14.9631 5.26372 14.9872 5.33599 14.9934 5.41085C14.9934 5.61752 14.7834 5.82752 14.5767 5.82752C14.3734 5.82752 14.16 5.61752 14.16 5.41752C14.16 5.20835 14.3667 4.99418 14.57 4.99418C14.6373 4.99843 14.703 5.01599 14.7634 5.04585ZM8.49338 7.53335C6.40838 7.71168 4.32171 8.95418 3.60588 10.4442C2.88171 11.95 3.61838 13.2534 5.48921 13.7759C6.60838 14.0884 8.47921 14.225 10.31 14.1267C12.4667 14.0109 13.6667 13.66 14.3959 12.93C15.3334 11.9934 15.155 10.6234 13.935 9.38085C13.4792 8.91752 12.9434 8.54502 12.2434 8.20752C11.08 7.64502 9.82504 7.41918 8.49338 7.53335ZM2.15588 8.50835C1.30921 8.76002 0.502544 9.37668 0.191711 10.0092C0.032544 10.3309 -0.0216227 10.5967 0.00754392 10.9109C0.0683772 11.5792 0.605044 12.0925 1.47671 12.3134C1.81921 12.4 2.05088 12.3884 2.26338 12.2725C2.95004 11.8992 2.77671 10.8934 1.99671 10.7284C1.88421 10.7042 1.78421 10.6734 1.77588 10.6592C1.74671 10.6125 2.08004 10.345 2.29671 10.2392C2.41421 10.1825 2.60004 10.1109 2.71004 10.0792C3.19588 9.94085 3.42671 9.66752 3.42671 9.23168C3.42717 9.06833 3.37813 8.90867 3.28605 8.77375C3.19396 8.63882 3.06316 8.53496 2.91088 8.47585C2.74671 8.40752 2.45171 8.42002 2.15588 8.50835ZM15.4017 8.47752C15.2514 8.53809 15.1226 8.6423 15.032 8.77672C14.9414 8.91113 14.8931 9.06959 14.8934 9.23168C14.8934 9.66752 15.1242 9.94085 15.61 10.0792C15.72 10.1109 15.9059 10.1825 16.0234 10.2392C16.24 10.345 16.5734 10.6125 16.5442 10.6592C16.5359 10.6734 16.4359 10.7042 16.3234 10.7284C16.0817 10.7792 15.89 10.9117 15.7434 11.1292C15.6525 11.2634 15.6434 11.3025 15.6434 11.5467C15.6434 11.7884 15.6534 11.8325 15.7442 11.98C15.9292 12.2792 16.2859 12.4283 16.6434 12.3567C17.645 12.1542 18.2475 11.6334 18.3125 10.9109C18.3717 10.2584 18.0259 9.62502 17.32 9.09335C16.6742 8.60585 15.7717 8.31668 15.4017 8.47752ZM10.1725 9.25918C11.5559 9.53585 12.7825 10.3042 13.2142 11.1625C13.4317 11.5967 13.3192 11.82 12.7692 12.0434C12.0409 12.3392 10.7984 12.4942 9.16004 12.4942C6.64838 12.4942 4.99338 12.1059 4.99338 11.5167C4.99338 11.2792 5.22588 10.8917 5.57838 10.5409C6.25421 9.86752 7.25421 9.39835 8.41004 9.21168C8.84421 9.14168 9.70171 9.16502 10.1725 9.25918Z" fill="#292929"/>
</svg>
