<svg width="25" height="24" viewBox="0 0 25 24" fill="none" xmlns="http://www.w3.org/2000/svg">
<path d="M21.5 22H3.5C3.09 22 2.75 21.66 2.75 21.25C2.75 20.84 3.09 20.5 3.5 20.5H21.5C21.91 20.5 22.25 20.84 22.25 21.25C22.25 21.66 21.91 22 21.5 22Z" fill="#FF859C"/>
<path d="M19.5201 3.48016C17.5801 1.54016 15.6801 1.49016 13.6901 3.48016L12.4801 4.69016C12.3801 4.79016 12.3401 4.95016 12.3801 5.09016C13.1401 7.74016 15.2601 9.86015 17.9101 10.6201C17.9501 10.6301 17.9901 10.6401 18.0301 10.6401C18.1401 10.6401 18.2401 10.6001 18.3201 10.5201L19.5201 9.31016C20.5101 8.33016 20.9901 7.38016 20.9901 6.42016C21.0001 5.43016 20.5201 4.47016 19.5201 3.48016Z" fill="#FF859C"/>
<path d="M16.1099 11.5301C15.8199 11.3901 15.5399 11.2501 15.2699 11.0901C15.0499 10.9601 14.8399 10.8201 14.6299 10.6701C14.4599 10.5601 14.2599 10.4001 14.0699 10.2401C14.0499 10.2301 13.9799 10.1701 13.8999 10.0901C13.5699 9.81013 13.1999 9.45013 12.8699 9.05013C12.8399 9.03013 12.7899 8.96013 12.7199 8.87013C12.6199 8.75013 12.4499 8.55013 12.2999 8.32013C12.1799 8.17013 12.0399 7.95013 11.9099 7.73013C11.7499 7.46013 11.6099 7.19013 11.4699 6.91013C11.4487 6.86473 11.4282 6.81957 11.4083 6.77466C11.2607 6.44135 10.8261 6.3439 10.5683 6.60166L4.83983 12.3301C4.70983 12.4601 4.58983 12.7101 4.55983 12.8801L4.01983 16.7101C3.91983 17.3901 4.10983 18.0301 4.52983 18.4601C4.88983 18.8101 5.38983 19.0001 5.92983 19.0001C6.04983 19.0001 6.16983 18.9901 6.28983 18.9701L10.1299 18.4301C10.3099 18.4001 10.5599 18.2801 10.6799 18.1501L16.4012 12.4288C16.6607 12.1693 16.5628 11.7238 16.2252 11.5798C16.1872 11.5635 16.1488 11.547 16.1099 11.5301Z" fill="#FF859C"/>
</svg>
